<!-- Generator: Adobe Illustrator 22.0.1, SVG Export Plug-In  -->
<svg version="1.1"
	 xmlns="http://www.w3.org/2000/svg" xmlns:xlink="http://www.w3.org/1999/xlink" xmlns:a="http://ns.adobe.com/AdobeSVGViewerExtensions/3.0/"
	 x="0px" y="0px" width="140.386px" height="135.834px" viewBox="0 0 140.386 135.834"
	 style="overflow:scroll;enable-background:new 0 0 140.386 135.834;" xml:space="preserve">
<style type="text/css">
	.st0{fill:none;stroke:#000000;stroke-miterlimit:10;}
	.st1{fill:url(#SVGID_1_);stroke:#000000;stroke-miterlimit:10;}
	.st2{fill:url(#SVGID_2_);stroke:#000000;stroke-miterlimit:10;}
	.st3{fill:url(#SVGID_3_);stroke:#000000;stroke-miterlimit:10;}
	.st4{fill:url(#SVGID_4_);stroke:#000000;stroke-miterlimit:10;}
	.st5{fill:url(#SVGID_5_);stroke:#000000;stroke-miterlimit:10;}
	.st6{fill:url(#SVGID_6_);stroke:#000000;stroke-miterlimit:10;}
	.st7{fill:url(#SVGID_7_);stroke:#000000;stroke-miterlimit:10;}
	.st8{fill:url(#SVGID_8_);stroke:#000000;stroke-miterlimit:10;}
	.st9{fill:url(#SVGID_9_);stroke:#000000;stroke-miterlimit:10;}
	.st10{fill:url(#SVGID_10_);stroke:#000000;stroke-miterlimit:10;}
	.st11{fill:url(#SVGID_11_);stroke:#000000;stroke-miterlimit:10;}
	.st12{fill:url(#SVGID_12_);stroke:#000000;stroke-miterlimit:10;}
	.st13{fill:url(#SVGID_13_);stroke:#000000;stroke-miterlimit:10;}
	.st14{fill:url(#SVGID_14_);stroke:#000000;stroke-miterlimit:10;}
</style>
<defs>
</defs>
<path class="st0" d="M102.833,38.68l-14.25,15.556l-1.25-11.438l-52.5,53.302l-0.25-18.072l-28.75,31.569
	c-1.75-2.818-3.5-5.646-5.25-8.464c0.09-0.156,1.49-2.727,1.5-2.745c0.87-1.583,11.38-11.96,41.12-39.686
	c-0.62,4.685-1.24,9.37-1.87,14.064l48.25-48.269l2,11.896c1.58-1.83,3.17-3.66,4.75-5.49
	C98.503,33.492,100.663,36.09,102.833,38.68z"/>
<path class="st0" d="M106.583,32.046l-6.25-7.549c0,0,3.75-12.582-1.5-21.732S115.833,13.974,106.583,32.046z"/>
<linearGradient id="SVGID_1_" gradientUnits="userSpaceOnUse" x1="25.0321" y1="61.747" x2="68.0286" y2="24.9842">
	<stop  offset="0.1367" style="stop-color:#0E0E0E"/>
	<stop  offset="0.1989" style="stop-color:#3F3F3F"/>
	<stop  offset="0.3315" style="stop-color:#804139"/>
	<stop  offset="0.4342" style="stop-color:#AC4235"/>
	<stop  offset="0.4861" style="stop-color:#BD4334"/>
	<stop  offset="0.5404" style="stop-color:#C84330"/>
	<stop  offset="0.6578" style="stop-color:#DC4128"/>
	<stop  offset="0.7254" style="stop-color:#E44025"/>
	<stop  offset="0.8596" style="stop-color:#E72C25"/>
	<stop  offset="0.9744" style="stop-color:#E81E25"/>
</linearGradient>
<path class="st1" d="M2.333,92.897c0,0,0.75-32.942,24.25-53.759s32.25-24.478,32.25-24.478l3-4.575c0,0,15-4.804,19.75-2.516
	s5.5,5.948,5.5,5.948l-1.25,4.346l3,4.575l-45,44.609l1.75-13.954L2.333,92.897z"/>
<path class="st0" d="M93.333,28.157l-2-5.033c0.507,0.137,1.706,0.533,2.5,1.601c0.548,0.737,0.645,1.446,0.75,2.288
	c0.234,1.882-0.146,3.886-0.5,3.889C93.905,30.904,93.653,30.402,93.333,28.157z"/>
<polyline class="st0" points="48.583,92.897 55.083,90.152 55.113,90.124 "/>
<linearGradient id="SVGID_2_" gradientUnits="userSpaceOnUse" x1="118.7463" y1="80.269" x2="125.1663" y2="80.269">
	<stop  offset="0.0154" style="stop-color:#E16B27"/>
	<stop  offset="0.0667" style="stop-color:#DB6949"/>
	<stop  offset="0.1336" style="stop-color:#D3666C"/>
	<stop  offset="0.1941" style="stop-color:#CD6384"/>
	<stop  offset="0.2458" style="stop-color:#C86094"/>
	<stop  offset="0.2869" style="stop-color:#C45F9F"/>
	<stop  offset="0.312" style="stop-color:#C35FA4"/>
	<stop  offset="0.6585" style="stop-color:#D9445F"/>
	<stop  offset="0.8938" style="stop-color:#E42B34"/>
	<stop  offset="1" style="stop-color:#E81E25"/>
</linearGradient>
<polyline class="st2" points="74.413,84.112 80.833,76.426 80.833,82.831 "/>
<path class="st0" d="M47.583,125.152c1.214-0.019,0.035-8.575,5.548-16.82c1.497-2.239,3.948-5.143,3.952-5.141
	c0.002,0.001-0.75,0.978-1.438,1.87c1.131-0.883,1.611-1.507,1.438-1.87c-0.397-0.835-4.231-0.301-11.5,1.601
	c-0.451,3.25-0.775,7.931,0,13.497C45.7,119.131,46.563,125.168,47.583,125.152z"/>
<path class="st0" d="M55.113,90.124c4.1-1.684,8.09-3.184,11.97-4.548c2.44-0.485,4.89-0.979,7.33-1.464"/>
<path class="st0" d="M93.333,28.157"/>
<linearGradient id="SVGID_3_" gradientUnits="userSpaceOnUse" x1="11.6663" y1="76.5402" x2="114.6963" y2="76.5402">
	<stop  offset="0.2154" style="stop-color:#2A1C0F"/>
	<stop  offset="0.3233" style="stop-color:#5A3620"/>
	<stop  offset="0.4245" style="stop-color:#874827"/>
	<stop  offset="0.5111" style="stop-color:#AB5429"/>
	<stop  offset="0.5798" style="stop-color:#C25A2A"/>
	<stop  offset="0.622" style="stop-color:#CC5C2A"/>
	<stop  offset="0.7458" style="stop-color:#D84828"/>
	<stop  offset="0.9261" style="stop-color:#E81E25"/>
</linearGradient>
<path class="st3" d="M108.863,47.144c-8.25,8.254-16.5,16.517-24.75,24.77l-1.53-8.071v-1.601l-27.47,27.881
	c-2.15,0.869-4.33,1.794-6.53,2.773c-15.26,6.753-28.14,14.284-38.75,21.504l-1.04-1.638l-2.96-3.166l28.75-31.569l0.25,18.072
	l52.5-53.302l1.25,11.438l14.25-15.556C102.833,38.68,106.333,40.51,108.863,47.144z"/>
<linearGradient id="SVGID_4_" gradientUnits="userSpaceOnUse" x1="60.5529" y1="80.1592" x2="137.8329" y2="80.1592">
	<stop  offset="0.0154" style="stop-color:#935532"/>
	<stop  offset="0.0558" style="stop-color:#985936"/>
	<stop  offset="0.2037" style="stop-color:#A86345"/>
	<stop  offset="0.2949" style="stop-color:#B0694C"/>
	<stop  offset="0.4287" style="stop-color:#D35540"/>
	<stop  offset="0.5282" style="stop-color:#EA4138"/>
</linearGradient>
<path class="st4" d="M137.833,63.615c-2.08,0.988-4.17,1.986-6.25,2.974c-4.02,3.102-8.19,6.231-12.5,9.379
	c-3.79,2.763-7.54,5.435-11.25,8.007c-15.01,3.303-30.84,7.467-47.28,12.728c2.18-3.715,4.35-7.421,6.53-11.127
	c2.42-0.458,4.83-0.915,7.25-1.373l0.08-0.091c2.14-0.43,4.28-0.851,6.42-1.281c2.69-0.796,5.37-1.592,8.05-2.379
	c0.37-0.11,0.75-0.22,1.12-0.329c5.2-1.537,10.39-3.075,15.58-4.612C123.083,64.53,137.833,63.615,137.833,63.615z"/>
<linearGradient id="SVGID_5_" gradientUnits="userSpaceOnUse" x1="9.8329" y1="106.9838" x2="48.5829" y2="106.9838">
	<stop  offset="0.8452" style="stop-color:#2A1C0F"/>
	<stop  offset="0.8754" style="stop-color:#603920"/>
	<stop  offset="0.9031" style="stop-color:#934E26"/>
	<stop  offset="0.9267" style="stop-color:#BE5C27"/>
	<stop  offset="0.9455" style="stop-color:#D96425"/>
	<stop  offset="0.957" style="stop-color:#E66825"/>
	<stop  offset="0.978" style="stop-color:#E74925"/>
	<stop  offset="1" style="stop-color:#E81E25"/>
</linearGradient>
<path class="st5" d="M48.583,92.897l-3,7.549l-0.85,1.592c-7.84,4.475-15.68,8.94-23.53,13.405c0,0,0,0-7.37,5.362
	c-3.75,1.83-4-6.405-4-6.405C20.443,107.181,33.323,99.65,48.583,92.897z"/>
<linearGradient id="SVGID_6_" gradientUnits="userSpaceOnUse" x1="13.8329" y1="125.3885" x2="31.632" y2="125.3885">
	<stop  offset="0.2154" style="stop-color:#2A1A0D"/>
	<stop  offset="0.2187" style="stop-color:#2B1B10"/>
	<stop  offset="0.3348" style="stop-color:#5B3640"/>
	<stop  offset="0.4394" style="stop-color:#844967"/>
	<stop  offset="0.529" style="stop-color:#A55585"/>
	<stop  offset="0.6" style="stop-color:#B95B99"/>
	<stop  offset="0.6436" style="stop-color:#C35FA4"/>
	<stop  offset="0.8231" style="stop-color:#D9445F"/>
	<stop  offset="0.945" style="stop-color:#E42B34"/>
	<stop  offset="1" style="stop-color:#E81E25"/>
</linearGradient>
<path class="st6" d="M31.603,135.3c-0.11,0.101-0.46-0.055-0.52-0.082c-4.25-1.83-17.25-14.412-17.25-14.412
	c7.37-5.362,7.37-5.362,7.37-5.362c-0.1,0.311-0.27,0.924-0.37,1.702C19.743,126.058,32.313,134.623,31.603,135.3z"/>
<linearGradient id="SVGID_7_" gradientUnits="userSpaceOnUse" x1="80.2163" y1="69.6316" x2="107.0834" y2="69.6316">
	<stop  offset="0.0154" style="stop-color:#A8783C"/>
	<stop  offset="0.0984" style="stop-color:#B27343"/>
	<stop  offset="0.2417" style="stop-color:#C06B4D"/>
	<stop  offset="0.33" style="stop-color:#C86951"/>
	<stop  offset="0.5587" style="stop-color:#DA4936"/>
	<stop  offset="0.7705" style="stop-color:#E81E25"/>
</linearGradient>
<path class="st7" d="M108.863,58.811l-3.28,16.7c-5.19,1.537-10.38,3.075-15.58,4.612c-0.37,0.11-0.75,0.22-1.12,0.329
	C95.543,73.241,102.203,66.022,108.863,58.811z"/>
<path class="st0" d="M108.863,58.811c-6.66,7.211-13.32,14.43-19.98,21.641c-2.68,0.787-5.36,1.583-8.05,2.379
	c-2.14,0.43-4.28,0.851-6.42,1.281l-0.08,0.091c-2.42,0.458-4.83,0.915-7.25,1.373c-2.18,3.706-4.35,7.412-6.53,11.127
	c-5.42,1.729-10.69,3.514-15.82,5.335l0.85-1.592l3-7.549c2.2-0.979,4.38-1.903,6.53-2.773l27.47-27.881v1.601l1.53,8.071
	c8.25-8.254,16.5-16.517,24.75-24.77C111.393,53.778,108.863,58.811,108.863,58.811z"/>
</svg>